<?xml version="1.0" encoding="UTF-8"?>
<!DOCTYPE svg  PUBLIC '-//W3C//DTD SVG 1.1//EN'  'http://www.w3.org/Graphics/SVG/1.1/DTD/svg11.dtd'>
<svg width="256px" height="256px" enable-background="new -436.387 138.077 256 256" version="1.1" viewBox="-436.387 138.077 256 256" xml:space="preserve" xmlns="http://www.w3.org/2000/svg">
<linearGradient id="a" x1="-156.96" x2="-459.81" y1="353.5" y2="178.65" gradientUnits="userSpaceOnUse">
	<stop stop-color="#312A6C" offset="0"/>
	<stop stop-color="#852D91" offset="1"/>
</linearGradient>
<rect x="-436.39" y="138.08" width="256" height="256" fill="url(#a)"/>
	<path d="m-389.88 208.56c0-9.731 1.904-16.796 5.716-21.193 3.809-4.397 10.289-6.301 19.435-5.716v7.035c-6.45-0.937-10.877 0.412-13.279 4.045-2.404 3.636-3.605 9.03-3.605 16.181v31.658c0 13.015-3.108 20.929-9.322 23.743 6.332 2.463 9.497 10.144 9.497 23.04v35.527c0 7.15 1.143 12.457 3.43 15.917 2.286 3.457 6.711 4.718 13.279 3.781v7.915c-9.146 0.585-15.626-1.319-19.435-5.716-3.812-4.397-5.716-11.462-5.716-21.193v-36.055c0-13.13-4.397-19.698-13.191-19.698v-6.859c8.794 0 13.191-6.799 13.191-20.402v-32.01z" fill="#fff"/>
	<path d="m-226.9 208.56v32.01c0 13.603 4.397 20.402 13.191 20.402v6.859c-8.794 0-13.191 6.568-13.191 19.698v36.055c0 9.731-1.907 16.796-5.716 21.193-3.812 4.397-10.288 6.302-19.434 5.716v-7.915c6.565 0.937 10.992-0.324 13.279-3.781 2.286-3.46 3.43-8.767 3.43-15.917v-35.527c0-12.897 3.166-20.578 9.498-23.04-6.216-2.814-9.322-10.728-9.322-23.743v-31.658c0-7.151-1.204-12.545-3.606-16.181-2.405-3.633-6.832-4.982-13.279-4.045v-7.035c9.146-0.585 15.623 1.319 19.434 5.716 3.809 4.397 5.716 11.462 5.716 21.193z" fill="#fff"/>
	<path d="m-281.18 228.24c0.118-6.251-2.446-12.262-7.372-17.034-4.984-4.844-11.836-7.856-19.29-8.506-16.1-1.406-29.696 8.576-30.866 22.054-0.045 0.556-0.033 1.101-0.033 1.642l-9.039-0.284-16.726 91.938 97.028 11.482-4.69-101-9.012-0.294zm-16.136-17.095c0.614-1.049 2.244-1.654 3.305-0.874 3.251 2.386 5.885 5.352 7.726 8.93 1.43 2.776-2.752 5.222-4.182 2.446-1.452-2.812-3.414-5.316-5.988-7.194-1.051-0.78-1.584-2.077-0.861-3.308zm-29.342 14.66c0.541-6.248 7.512-11.14 15.864-11.14 0.626 0 1.264 0.036 1.914 0.085 4.687 0.411 8.906 2.232 11.905 5.138 2.41 2.338 3.71 5.15 3.72 7.974l-33.415-1.077c-0.012-0.33-0.012-0.65 0.012-0.98zm-8.824 58.342c-1.536 1.134-3.629 1.606-6.275 1.439-2.703-0.187-4.793-0.931-6.26-2.244-1.476-1.309-2.138-3.024-1.996-5.138l4.098 0.272c0.073 0.931 0.284 1.642 0.65 2.126 0.65 0.886 1.845 1.394 3.568 1.5 1.04 0.073 1.89 0.012 2.54-0.166 1.252-0.342 1.926-1.086 1.996-2.232 0.048-0.674-0.224-1.216-0.792-1.618-0.578-0.402-1.512-0.78-2.788-1.146l-2.195-0.626c-2.15-0.626-3.626-1.252-4.406-1.866-1.325-1.028-1.914-2.54-1.784-4.536 0.118-1.82 0.898-3.296 2.337-4.406 1.43-1.122 3.463-1.597 6.084-1.418 2.198 0.142 4.028 0.838 5.495 2.081 1.476 1.24 2.171 2.939 2.114 5.101l-4.134-0.272c9e-3 -1.228-0.487-2.138-1.479-2.716-0.671-0.39-1.512-0.614-2.528-0.686-1.134-0.069-2.053 0.094-2.764 0.484-0.708 0.402-1.073 0.995-1.134 1.784-0.045 0.732 0.248 1.3 0.898 1.703 0.414 0.272 1.3 0.614 2.67 1.028l3.544 1.074c1.557 0.472 2.715 1.04 3.459 1.712 1.158 1.04 1.678 2.471 1.56 4.279-0.116 1.853-0.954 3.353-2.478 4.487zm18.438 2.54l-1.074-4.264-7.572-0.508-1.666 4.098-4.488-0.305 8.682-19.859 4.853 0.321 5.918 20.823-4.653-0.306zm21.83 1.452l-14.551-0.968 1.346-20.342 4.288 0.272-1.098 16.693 10.251 0.683-0.236 3.662zm19.184-15.556l-10.868-0.711-0.296 4.312 9.982 0.662-0.236 3.532-9.97-0.65-0.354 5.222 11.376 0.756-0.236 3.659-15.57-1.025 1.346-20.355 15.062 0.992-0.236 3.606z" fill="#fff"/>
	<rect x="-364.5" y="202.57" width="114.67" height="127.01" fill="none"/>
	<path d="m-324.28 278.49l5.256 0.342-2.056-8.174-3.2 7.832z" fill="#fff"/>
	<path d="m-252.32 307.55l-17.908-78.811 6.048 97.167 11.186-16.027-8.386-1.572 0.448-2.374 8.612 1.617z" fill="#fff"/>
</svg>
